Coordinates
version=1
nRows=19
nColumns=36
inDegrees=yes

Units are S.I. units (second, meters, Newtons, ...)
If the header above contains a line with 'inDegrees', this indicates whether rotational values are in degrees (yes) or radians (no).

endheader
time	pelvis_tilt	pelvis_list	pelvis_rotation	pelvis_tx	pelvis_ty	pelvis_tz	hip_flexion_r	hip_adduction_r	hip_rotation_r	knee_angle_r	knee_angle_r_beta	ankle_angle_r	subtalar_angle_r	mtp_angle_r	hip_flexion_l	hip_adduction_l	hip_rotation_l	knee_angle_l	knee_angle_l_beta	ankle_angle_l	subtalar_angle_l	mtp_angle_l	lumbar_extension	lumbar_bending	lumbar_rotation	arm_flex_r	arm_add_r	arm_rot_r	elbow_flex_r	pro_sup_r	arm_flex_l	arm_add_l	arm_rot_l	elbow_flex_l	pro_sup_l
      3.96666670	    -16.42651312	      1.35251722	     -4.54131158	      0.06012159	      0.36158428	      0.09324768	    105.78176306	    -30.27459986	     20.54898995	    137.83020308	      2.40559085	     47.29069098	      2.12770272	     -7.49999987	    116.52099775	    -32.10578378	     27.28114519	    136.38018893	      2.38028333	     36.52928523	      4.95757397	     -7.49999987	    -14.43623382	      3.06416318	      1.40969236	     87.79683130	     -5.48155599	     69.53170056	    112.99654522	     87.99120991	     89.87789190	      6.55902527	     87.16512218	    108.79159064	     72.20373233
      3.98333330	    -16.26274584	      1.18489121	     -4.34042097	      0.06035878	      0.36147336	      0.09390370	    106.00580826	    -30.15562744	     20.83775603	    138.10159793	      2.41032759	     46.99578703	      1.76673056	     -7.49999987	    116.82806075	    -31.90680341	     27.48609111	    136.49173897	      2.38223025	     36.39336710	      5.19919919	     -7.49999987	    -14.79191251	      3.30273123	      1.22355614	     88.47307123	     -5.41051165	     69.70159638	    113.19660684	     87.56352016	     90.51269905	      6.49773944	     87.09888173	    109.08701619	     71.97224530
      4.00000000	    -16.34403332	      1.10389620	     -4.05962244	      0.06210212	      0.35975297	      0.09383745	    106.22159933	    -30.16661076	     21.06989075	    138.32186999	      2.41417206	     46.90608393	      1.34991943	     -7.49999987	    117.28915318	    -31.66023725	     27.70474048	    136.63166313	      2.38467238	     36.19392317	      5.19875586	     -7.49999987	    -14.71044377	      3.52978257	      1.09138650	     88.70867507	     -5.29808651	     69.82231144	    113.33706443	     87.55777241	     90.70896162	      6.35947478	     86.93071172	    109.25922971	     72.16985245
      4.01666670	    -16.31263314	      1.03094028	     -3.89892674	      0.06266227	      0.36040078	      0.09439071	    106.01726343	    -30.03730715	     21.09956143	    138.38338044	      2.41524562	     47.06576293	      1.22348456	     -7.49999987	    117.39265104	    -31.66476063	     27.74913343	    136.62365498	      2.38453262	     36.00989883	      5.32222630	     -7.49999987	    -14.67833023	      3.53561555	      1.05912471	     88.66956587	     -5.35710070	     69.90022338	    113.65433932	     87.70545653	     90.81890322	      6.38074292	     86.97704776	    109.08100852	     71.89922731
      4.03333330	    -16.31978848	      0.90666875	     -3.92580330	      0.06212827	      0.36016689	      0.09458218	    105.66428785	    -29.82751560	     20.89093829	    138.35354829	      2.41472495	     47.16313916	      1.08723202	     -7.49999987	    117.55664570	    -31.84866008	     27.97736926	    136.56449119	      2.38350001	     35.89334231	      5.24950770	     -7.49999987	    -14.66158748	      3.66039408	      1.23742604	     88.82854380	     -5.39943320	     70.04821078	    113.70905193	     85.74881834	     91.12662310	      6.32957689	     87.18832088	    109.10455152	     70.67370647
      4.05000000	    -16.38415411	      1.22720104	     -3.67480714	      0.06134844	      0.36093421	      0.09435261	    105.92505243	    -29.79746296	     21.28959619	    138.31600238	      2.41406965	     47.41345508	      1.37758862	     -7.49999987	    117.30617323	    -31.68409519	     27.32146555	    136.42914888	      2.38113784	     35.67978246	      4.98354722	     -7.49999987	    -14.55698996	      3.34831140	      0.91251291	     88.89423500	     -5.10479832	     70.67345729	    113.71411245	     78.41739955	     91.15829983	      6.14078530	     87.52022555	    109.54095980	     67.54567450
      4.06666670	    -16.50890462	      1.19234427	     -3.68251697	      0.06452868	      0.36311187	      0.09459390	    105.51747768	    -29.69474036	     21.08410288	    138.07389285	      2.40984404	     47.45186703	      1.12568856	     -7.49999987	    117.16818368	    -31.94909249	     27.21220615	    136.22697926	      2.37760932	     35.59947859	      4.85754328	     -7.49999987	    -14.30715373	      3.45820498	      1.10462772	     88.69559279	     -5.20659523	     71.14718020	    113.74675945	     72.86850894	     90.72829428	      5.97571247	     87.74074426	    109.79730484	     65.36872164
      4.08333330	    -16.59601652	      1.04577473	     -3.87028463	      0.06203656	      0.36161401	      0.09454665	    105.20908613	    -29.41680493	     20.57208919	    137.89005612	      2.40663549	     47.36833736	      0.43060972	     -7.49999987	    117.27768962	    -32.24716683	     27.41058060	    136.15742141	      2.37639530	     35.86141630	      5.06594222	     -7.49999987	    -14.20284919	      3.56498677	      1.45227323	     88.37743933	     -5.44645584	     69.62821896	    113.14282334	     87.79037961	     90.79947879	      6.04565885	     87.00135180	    108.98165302	     71.60969541
      4.10000000	    -16.55150749	      0.98571988	     -3.90621387	      0.06272058	      0.36354591	      0.09448376	    104.86355853	    -29.38215597	     20.25894610	    137.66418461	      2.40269328	     47.45807720	      0.44304520	     -7.49999987	    117.02238961	    -32.33507701	     27.18312166	    135.96656596	      2.37306425	     35.98935142	      5.21270699	     -7.49999987	    -14.27245275	      3.68711629	      1.55795234	     88.45402750	     -5.54562399	     69.15994206	    112.56533659	     87.50597231	     90.72324359	      5.90489252	     86.80753063	    108.67713872	     71.56975277
      4.11666670	    -16.70731220	      0.94654136	     -3.95269118	      0.06591872	      0.36349657	      0.09411354	    104.83717562	    -29.48869184	     20.39536317	    137.69802015	      2.40328383	     47.45817715	      0.49736466	     -7.49999987	    117.05604225	    -32.46357252	     27.26715770	    135.95514677	      2.37286495	     36.19503613	      5.36953334	     -7.49999987	    -13.93516293	      3.79442028	      1.63567350	     88.22360055	     -5.55362000	     69.01082838	    112.21376912	     87.88343632	     90.33262011	      5.90537541	     86.73803947	    108.65650572	     72.15843900
      4.13333330	    -16.72533891	      0.82841864	     -3.99206085	      0.06474918	      0.36525040	      0.09401524	    104.51057002	    -29.48801799	     19.99853997	    137.50458739	      2.39990779	     47.52465010	      0.47935902	     -7.49999987	    116.90238605	    -32.42505984	     27.32590042	    135.87966193	      2.37154749	     36.46167560	      5.90939574	     -7.49999987	    -13.90874642	      3.90602464	      1.70447821	     88.18351895	     -5.42762465	     69.39261044	    112.28334422	     83.85086344	     90.09830787	      5.86455722	     86.90227876	    108.90164203	     70.25714707
      4.15000000	    -16.57737060	      0.88303698	     -4.01918464	      0.06394173	      0.36336659	      0.09475294	    104.42093280	    -29.47010846	     20.11037381	    137.62980583	      2.40209326	     47.65520707	      0.65074814	     -7.49999987	    116.81833297	    -32.45295454	     27.42592621	    135.96613860	      2.37305679	     36.17919654	      5.82179041	     -7.49999987	    -13.99643225	      3.81155638	      1.70975411	     88.28537069	     -5.37882419	     68.71926461	    111.69547628	     87.89729227	     90.18446817	      5.67130900	     86.80030300	    109.12518552	     72.40533645
      4.16666670	    -16.27712560	      0.83838031	     -4.21341394	      0.06389045	      0.36434585	      0.09452506	    104.09714322	    -29.24475404	     19.98968880	    137.65195358	      2.40247981	     47.74349068	      0.70054221	     -7.49999987	    116.68298795	    -32.59741652	     27.67688741	    136.15067398	      2.37627754	     36.20285415	      5.78137711	     -7.49999987	    -14.37011515	      3.80934607	      1.92185133	     88.80466241	     -5.52849367	     68.71794080	    111.27616956	     81.67168560	     90.61802237	      5.69534012	     86.85321355	    109.25050207	     69.70712171
      4.18333330	    -16.28537345	      0.79917753	     -4.02438095	      0.06511230	      0.36427200	      0.09443514	    104.18360478	    -29.44514984	     20.15889800	    137.83444845	      2.40566495	     47.69349379	      0.56580087	     -7.49999987	    116.71704623	    -32.31439297	     27.84816008	    136.22667004	      2.37760392	     36.00558729	      6.01172846	     -7.49999987	    -14.30081279	      3.78242542	      1.78507542	     88.51928601	     -5.61771256	     68.07730752	    111.26917674	     87.64801314	     90.50638720	      5.76398036	     86.42541591	    108.64579701	     72.30541895
      4.20000000	    -16.09338563	      0.72307812	     -3.87743938	      0.06345843	      0.36293532	      0.09502130	    104.25306776	    -29.51390430	     20.46399004	    138.15025840	      2.41117687	     47.62816493	      0.83476047	     -7.49999987	    116.74735835	    -32.01975895	     28.20186838	    136.39631938	      2.38056486	     35.99382586	      6.24370978	     -7.49999987	    -14.49399637	      3.72533519	      1.83709021	     88.54351614	     -5.89414622	     67.74953759	    111.42977128	     87.70968145	     90.61859588	      5.94317427	     86.18075141	    108.46544896	     72.35505153
      4.21666670	    -15.98810067	      0.87475987	     -3.85434296	      0.06351060	      0.36007002	      0.09448679	    104.84805811	    -29.48407808	     21.25646567	    138.54126461	      2.41800122	     47.65773519	      1.45334977	     -7.49999987	    116.95584346	    -31.81036127	     28.40789968	    136.78405786	      2.38733217	     36.16714508	      6.50877240	     -7.49999987	    -14.60279235	      3.47219754	      1.73548069	     88.99057491	     -5.89758456	     67.81434198	    111.45898632	     80.74571523	     91.16094347	      5.89183331	     86.17392302	    108.66213831	     68.94987574
      4.23333330	    -16.02701820	      0.67672706	     -3.93739242	      0.06503168	      0.36243274	      0.09422647	    104.62925427	    -29.47826247	     20.98988399	    138.49715180	      2.41723130	     47.57224903	      1.42678854	     -7.49999987	    117.21763754	    -31.76805905	     28.81387860	    136.77790797	      2.38722484	     36.20379232	      7.00175361	     -7.49999987	    -14.52340260	      3.57627755	      1.92680855	     88.66181938	     -5.91403341	     67.48928996	    111.78319227	     88.29713695	     90.74076185	      6.00254102	     85.98015384	    108.51837880	     72.30323152
      4.25000000	    -16.04486589	      0.65023236	     -3.86124438	      0.06515290	      0.36249806	      0.09280573	    104.56282596	    -29.67823422	     20.94893911	    138.35122249	      2.41468436	     47.54350649	      1.56374479	     -7.49999987	    117.21681449	    -31.54227612	     28.66442265	    136.81896320	      2.38794139	     36.08899703	      6.67491541	     -7.49999987	    -14.50287615	      3.65981959	      1.86508519	     88.69911718	     -5.73299622	     67.87194802	    111.99173594	     88.41908104	     90.59520836	      5.91776578	     85.77843403	    108.61057360	     72.75085343
      4.26666670	    -16.30119685	      0.56093363	     -3.83933499	      0.06675820	      0.36213933	      0.09236017	    104.64499349	    -29.87299362	     20.89738024	    138.22211252	      2.41243096	     47.46583600	      1.63314145	     -7.49999987	    117.21134541	    -31.52610903	     28.76086878	    136.81812975	      2.38792684	     36.30104658	      6.74792390	     -7.49999987	    -14.09173056	      3.77702999	      1.90745456	     88.32152978	     -5.63738209	     68.31822152	    112.34352347	     88.71822219	     89.96962725	      5.95707398	     85.88468235	    109.04715091	     73.08764989
